# xmcd CD database file
#
# Track frame offsets:
#	180
#	21397
#	45840
#	75296
#	101163
#	120808
#	151560
#	175780
#	196169
#	215817
#	240941
#	265604
#
# Disc length: 3900 seconds
#
# Revision: 0
# Processed by: cddbd v1.4PL0 Copyright (c) Steve Scherf et al.
# Submitted via: CDex 1.50Beta7
#
DISCID=800f3a0c
DTITLE=Jagjit Singh - Rishton Mein Daraar Ayee
DYEAR=1900
DGENRE=Rhythmic Soul
TTITLE0=Rishton Mein Daraar
TTITLE1=Phir Se Mausam Baharon Ka
TTITLE2=Kuch Na Kuch To Zuroor Hona Hay
TTITLE3=Kabhi Kabhi Hum Ne Apne Dil Ko
TTITLE4=Darde Dil Mein Kami Na Hojaye
TTITLE5=Kaun Ayega Yahan Koi Na Ayaa Hoga
TTITLE6=Sir Jhukaoge to Patthar
TTITLE7=Koi Dost Hay Na Raqeeb Hay
TTITLE8=Tera Chehra Kitna Suhana Lagta Hay
TTITLE9=Maan Mausam Ka Kaha
TTITLE10=Mere Qareeb Na Aao Ke Main Sharabi
TTITLE11=Aap Se Gila Aap Ki Qasam
EXTD=
EXTT0=
EXTT1=
EXTT2=
EXTT3=
EXTT4=
EXTT5=
EXTT6=
EXTT7=
EXTT8=
EXTT9=
EXTT10=
EXTT11=
PLAYORDER=
